<?xml version="1.0" encoding="UTF-8"?><svg id="Layer_2" xmlns="http://www.w3.org/2000/svg" viewBox="0 0 670.69 132.67"><g id="Layer_1-2"><path d="M670.23,52.63c-205.02.78-173.68-.44-414.85.18-15.32-17.86-31.19-35.35-47.3-52.44-11.52-.58-23.11-.4-34.63.08,14.1,18.45,31.33,34.38,45.13,53.08-2.96-.83-6.91.2-9.16-2.4-15.11-16.59-29.38-33.93-44.49-50.5-11.55-.67-23.18-.58-34.75,0,14.16,18.38,31.12,34.45,44.97,53.08-2.8-.85-6.39-.05-8.73-2.01-14.91-16.89-29.74-33.86-44.52-50.84-11.64-.81-23.39-.69-35.06-.17,13.85,18.58,30.99,34.47,44.72,53.15-3.98-.46-8.68-.34-11.04-4.24-13.62-16.48-28.57-31.88-41.62-48.82-11.73-.38-23.48-.71-35.18.04,13.78,18.79,31.31,34.54,44.77,53.55-3.35-.83-7.57-.34-9.77-3.5C64.36,34.12,49.45,17.84,35.31.91,23.54.66,11.77.26,0,.81c1.86,3.32,4.17,6.41,6.73,9.27,13.25,14.56,26.23,29.38,39.42,44.01-8.44,5.56-9.49,18.84-.37,24.33-13.7,15.87-27.28,31.85-41.23,47.5-1.78,1.86-2.72,4.23-3.58,6.63,11.64.29,23.29.01,34.93-.11,13.58-17.27,28.32-33.59,42.26-50.55,2.27-3.94,6.66-3.65,10.61-3.44-13.99,18.56-30.53,35.07-44.29,53.79,11.52.85,23.09.13,34.64.28,13.94-16.93,28.21-33.57,42.15-50.48,2.41-3.87,6.81-3.92,10.9-3.73-14.12,18.49-30.3,35.32-44.54,53.72,11.82.9,23.66.24,35.47.21,11.13-14.76,23.77-28.3,35.35-42.67,4.75-5.43,8.85-13.69,17.51-11.38-14.17,18.45-31.03,34.82-44.11,54.06,11.16.15,22.35.33,33.5-.17,15.05-16.57,28.95-34.18,43.66-51.07,2.27-3.69,6.54-3.16,10.3-2.96-14.35,18.45-31.1,35-44.67,54.01,11.25.43,22.5.22,33.75.12,14.9-15.92,28.66-32.92,43.28-49.11,2.03-1.65,3.42-4.75,6.25-5.01,240.58-.85,207.47,1.1,412.77.26l-.46-25.68Z"/></g></svg>